<svg xmlns="http://www.w3.org/2000/svg" width="24" height="24" viewBox="0 0 24 24" fill="currentColor" style="color: inherit;">
  <path d="M9.482 9.024c-.405-.27-1.749-1.203-1.749-1.203C8.77 6.199 10.378 5.43 12.949 5.43c1.463 0 2.705.49 3.591 1.422.887.932 1.392 2.264 1.508 3.966.369.155.717.329 1.358.726 1.664 1.118 2.579 2.79 2.579 4.706 0 4.074-3.339 7.61-9.384 7.61C5.89 24 1.5 20.981 1.5 11.991 1.5 3.051 6.723 0 12.066 0c2.467 0 8.259.365 10.934 7.554l-2.04.53C19.274 2.961 15.245 2.145 12.009 2.145c-5.348 0-8.373 3.257-8.373 10.185 0 6.215 3.381 9.515 8.445 9.515 4.166 0 7.271-2.165 7.271-5.334 0-2.157-1.812-3.191-1.905-3.191-.354 1.851-1.302 4.965-5.466 4.965-2.427 0-4.52-1.677-4.52-3.873 0-3.135 2.976-4.271 5.325-4.271.879 0 1.941.06 2.495.171 0-.956-.81-2.592-2.85-2.592-1.875 0-2.349.608-2.95 1.302zm3.353 3.286c-3.06 0-3.456 1.305-3.456 2.124 0 1.317 1.565 1.752 2.4 1.752 1.53 0 3.101-.423 3.348-3.635-.457-.148-.914-.241-2.292-.241z"/>
</svg>
